HIERARCHY
ROOT root
{
	OFFSET 0.000000 0.000000 0.000000
	CHANNELS 6 Xposition Yposition Zposition Zrotation Yrotation Xrotation
	JOINT lhip
	{
		OFFSET 0.058581 -0.082280 -0.017664
		CHANNELS 3 Zrotation Yrotation Xrotation
		JOINT lknee
		{
			OFFSET 0.043451 -0.386469 0.008037
			CHANNELS 3 Zrotation Yrotation Xrotation
			JOINT lankle
			{
				OFFSET -0.014790 -0.426874 -0.037428
				CHANNELS 3 Zrotation Yrotation Xrotation
				JOINT ltoe
				{
					OFFSET 0.041054 -0.060286 0.122042
					CHANNELS 3 Zrotation Yrotation Xrotation
					End Site
					{
						OFFSET 0.000000 0.000000 0.000000
					}
				}
			}
		}
	}
	JOINT rhip
	{
		OFFSET -0.060310 -0.090513 -0.013543
		CHANNELS 3 Zrotation Yrotation Xrotation
		JOINT rknee
		{
			OFFSET -0.043257 -0.383688 -0.004843
			CHANNELS 3 Zrotation Yrotation Xrotation
			JOINT rankle
			{
				OFFSET 0.019056 -0.420046 -0.034562
				CHANNELS 3 Zrotation Yrotation Xrotation
				JOINT rtoe
				{
					OFFSET -0.034840 -0.062106 0.130323
					CHANNELS 3 Zrotation Yrotation Xrotation
					End Site
					{
						OFFSET 0.000000 0.000000 0.000000
					}
				}
			}
		}
	}
	JOINT lowerback
	{
		OFFSET 0.004439 0.124404 -0.038385
		CHANNELS 3 Zrotation Yrotation Xrotation
		JOINT upperback
		{
			OFFSET 0.004488 0.137956 0.026820
			CHANNELS 3 Zrotation Yrotation Xrotation
			JOINT chest
			{
				OFFSET -0.002265 0.056032 0.002855
				CHANNELS 3 Zrotation Yrotation Xrotation
				JOINT lowerneck
				{
					OFFSET -0.013390 0.211636 -0.033468
					CHANNELS 3 Zrotation Yrotation Xrotation
					JOINT upperneck
					{
						OFFSET 0.010113 0.088937 0.050410
						CHANNELS 3 Zrotation Yrotation Xrotation
						End Site
						{
							OFFSET 0.000000 0.000000 0.000000
						}
					}
				}
				JOINT lclavicle
				{
					OFFSET 0.071702 0.114000 -0.018898
					CHANNELS 3 Zrotation Yrotation Xrotation
					JOINT lshoulder
					{
						OFFSET 0.122921 0.045205 -0.019046
						CHANNELS 3 Zrotation Yrotation Xrotation
						JOINT lelbow
						{
							OFFSET 0.255332 -0.015649 -0.022946
							CHANNELS 3 Zrotation Yrotation Xrotation
							JOINT lwrist
							{
								OFFSET 0.265709 0.012698 -0.007375
								CHANNELS 3 Zrotation Yrotation Xrotation
								End Site
								{
									OFFSET 0.000000 0.000000 0.000000
								}
							}
						}
					}
				}
				JOINT rclavicle
				{
					OFFSET -0.082954 0.112472 -0.023707
					CHANNELS 3 Zrotation Yrotation Xrotation
					JOINT rshoulder
					{
						OFFSET -0.113228 0.046853 -0.008472
						CHANNELS 3 Zrotation Yrotation Xrotation
						JOINT relbow
						{
							OFFSET -0.260127 -0.014369 -0.031269
							CHANNELS 3 Zrotation Yrotation Xrotation
							JOINT rwrist
							{
								OFFSET -0.269108 0.006794 -0.006027
								CHANNELS 3 Zrotation Yrotation Xrotation
								End Site
								{
									OFFSET 0.000000 0.000000 0.000000
								}
							}
						}
					}
				}
			}
		}
	}
}
MOTION
Frames: 16
Frame Time: 0.033333
0.910940 0.263815 1.160138 -85.068226 -1.379710 91.152916 -1.429557 -11.586023 -20.346858 -3.697654 -1.483142 21.320104 8.736783 13.803396 -13.625535 0.000000 -0.000000 0.000000 -4.138618 1.265234 -15.035665 3.836043 -1.469615 54.989065 10.567251 -4.516709 17.642829 0.000000 -0.000000 0.000000 -5.700744 5.746137 14.402825 1.067741 -3.941414 5.870461 0.263695 -0.940664 2.037323 -2.649797 2.315266 -6.139088 6.001025 -1.054633 -9.330339 -20.940034 -12.654324 5.583940 -56.572683 -11.282512 10.371683 13.642104 -34.120609 1.443573 6.190233 -7.186781 -2.745459 19.959732 6.286293 2.751083 62.099836 -1.547508 11.559424 -25.454762 41.852606 -7.336550 6.226876 6.401346 -7.283487 
0.897430 0.260688 1.165746 -84.340788 -0.932899 90.149291 -2.045325 -10.175102 -16.824594 -3.554532 -3.532469 18.923651 8.407984 13.549088 -13.709827 0.000000 -0.000000 0.000000 -4.242819 1.398229 -19.251702 2.869397 -3.481034 64.545301 8.259114 -5.149271 9.431899 0.000000 -0.000000 0.000000 -5.336711 4.269799 15.232858 1.502277 -3.784018 5.714780 0.332517 -1.393181 1.756934 -2.068109 3.099974 -5.755798 5.435786 -1.335130 -9.275805 -21.089368 -12.448769 5.325944 -56.423495 -11.125032 10.158341 13.468388 -34.499397 1.814427 6.108688 -7.013469 -2.745235 20.461655 5.785036 2.513875 61.801782 -2.687064 10.761989 -25.137392 41.785507 -7.007569 6.066915 6.596978 -6.588513 
0.884818 0.257610 1.169983 -84.134397 -0.422137 89.459356 -2.139172 -8.433641 -14.094401 -3.624659 -5.208676 17.167648 7.946888 13.192279 -14.083083 0.000000 -0.000000 0.000000 -4.363826 1.059762 -23.357046 1.778360 -5.026957 69.407274 5.705043 -5.931633 2.300978 0.000000 -0.000000 0.000000 -4.778508 3.042940 15.647565 1.703617 -3.570562 5.770737 0.414563 -1.740068 1.434575 -1.791612 3.642366 -5.216224 5.246278 -1.399222 -9.619173 -21.267328 -12.293617 5.382207 -56.357076 -11.115348 9.736367 13.554458 -34.778707 1.814544 6.520904 -6.752039 -3.245422 20.779089 5.438312 2.992764 61.789391 -3.410106 9.690283 -25.003283 41.678009 -7.112636 5.706997 6.353740 -6.658647 
0.871863 0.255086 1.173183 -84.558717 -0.011598 88.566367 -2.165275 -6.562029 -11.205066 -3.712907 -6.692923 15.539318 7.484266 13.180666 -14.425779 0.000000 -0.000000 0.000000 -4.455621 0.919390 -26.540535 1.144080 -6.223564 69.874991 4.227281 -6.552483 -3.222513 0.000000 -0.000000 0.000000 -4.366366 2.116453 15.994125 1.721364 -3.177770 6.197342 0.559479 -1.798038 1.168774 -1.664012 4.008529 -4.797405 5.282503 -1.508513 -9.891812 -21.146973 -12.402519 5.336276 -56.559383 -11.284119 9.471110 13.712149 -34.406535 1.607818 7.030142 -6.431801 -3.713357 20.835073 5.400749 3.495240 62.241028 -3.913068 8.692073 -25.222143 41.103251 -7.424878 5.974077 6.233834 -6.985682 
0.858988 0.252824 1.175241 -84.763266 0.510334 87.562524 -1.902508 -5.019977 -8.472260 -3.731906 -7.734508 14.331485 7.029200 12.773617 -14.977403 0.000000 -0.000000 0.000000 -4.309351 0.620624 -28.595700 1.117378 -7.372621 66.492260 3.713180 -6.636698 -6.532061 0.000000 -0.000000 0.000000 -3.740470 1.270887 16.662243 1.714122 -3.031612 6.229286 0.709634 -1.978194 1.154733 -1.520203 4.212111 -4.513691 5.333481 -1.496054 -9.877909 -20.957793 -12.342654 5.307430 -56.878651 -11.568817 9.345786 13.832627 -33.826100 1.749086 7.244849 -6.351189 -4.115959 20.628101 5.384748 3.888299 62.471083 -4.187678 8.263940 -24.519097 40.483083 -6.626678 5.732457 6.372550 -7.459230 
0.845259 0.252227 1.176784 -84.750564 1.494107 86.417282 -0.757197 -2.414152 -5.932150 -4.080978 -9.025021 13.777384 6.435340 11.405569 -16.000407 0.000000 -0.000000 0.000000 -3.105733 0.282197 -29.131440 0.837074 -8.463314 59.854549 3.705131 -6.988223 -8.428134 0.000000 -0.000000 0.000000 -2.813158 0.267041 17.882677 1.800972 -2.814054 5.374276 0.875199 -2.208162 1.580158 -1.340519 3.716675 -4.008801 5.282558 -0.907847 -10.086455 -21.470079 -11.386949 5.297086 -56.359724 -12.234075 10.146100 13.296164 -33.197543 3.033814 7.676483 -5.952851 -6.370906 20.901454 4.375028 4.027554 61.969636 -3.896924 9.056182 -23.532969 39.630571 -5.052902 5.200336 6.827683 -7.498531 
0.831909 0.251517 1.176653 -84.896435 1.959906 85.790793 -0.135481 -0.652794 -3.926094 -4.123732 -9.866164 13.073998 5.774516 10.508601 -16.651337 0.000000 -0.000000 0.000000 -2.319343 0.016661 -29.352742 0.691163 -9.222878 51.666413 4.256184 -7.314028 -9.199945 0.000000 -0.000000 0.000000 -2.248043 -0.363489 18.445267 1.722196 -2.790731 4.765074 1.018602 -2.467127 1.806085 -1.236053 3.417306 -3.367235 5.404174 -0.446698 -10.243854 -21.976332 -10.911556 5.752260 -55.689720 -12.763636 10.639029 12.903823 -32.461819 3.843839 7.752346 -5.988727 -7.166821 21.025535 3.784595 4.297972 61.749141 -3.793697 9.720528 -22.923427 38.943032 -4.137865 4.866018 6.901349 -7.657247 
0.818115 0.250781 1.176014 -84.807904 2.014698 85.575608 0.077653 0.233688 -2.153266 -4.160186 -10.365647 11.981469 5.354332 10.024539 -17.305033 0.000000 -0.000000 0.000000 -1.900547 -0.364092 -28.996337 1.521056 -9.063525 42.861262 4.381617 -7.251906 -8.849138 0.000000 -0.000000 0.000000 -2.148795 -0.636655 18.069505 1.731605 -3.086022 5.024623 1.250903 -2.758726 1.799003 -1.002144 3.301272 -2.979131 5.467920 -0.307768 -10.226131 -22.107447 -10.806386 6.035926 -55.481127 -13.002508 10.616565 12.456231 -31.808993 4.452213 7.475323 -6.259289 -6.695655 21.094592 3.411982 4.454662 61.767464 -3.813125 9.651613 -22.516516 38.446278 -3.552192 4.762195 7.000318 -7.118449 
0.803809 0.250573 1.174882 -84.619946 1.883236 85.568815 0.093621 0.599401 -0.740129 -4.180779 -10.614347 11.305526 5.318358 9.793461 -18.048236 0.000000 -0.000000 0.000000 -1.488698 -0.622229 -28.219646 2.533358 -7.750693 34.773712 4.779484 -6.738812 -7.485614 0.000000 -0.000000 0.000000 -2.207141 -0.664018 17.291833 1.799107 -3.528603 5.392497 1.405429 -3.044407 1.829472 -0.745110 3.171404 -2.574080 5.704996 -0.254652 -10.241005 -22.083608 -10.864295 6.367275 -55.500599 -13.180660 10.707934 12.214792 -30.913945 4.819619 7.296848 -6.428188 -6.325348 21.160973 3.168157 4.700973 61.921086 -3.775930 9.631922 -22.403352 37.768854 -3.497249 4.679957 7.046318 -7.056982 
0.788999 0.250601 1.173477 -84.027688 1.600492 85.752351 -0.067164 0.585543 0.379185 -4.175753 -10.968385 10.765523 5.321483 9.540227 -18.742815 0.000000 -0.000000 0.000000 -1.408930 -0.739848 -27.028147 2.998502 -6.421184 28.072677 5.122213 -6.509857 -4.669191 0.000000 -0.000000 0.000000 -2.341432 -0.574572 16.246653 1.916689 -3.994719 5.801649 1.592270 -3.411672 1.887754 -0.499833 2.711015 -2.170156 5.909048 -0.182312 -10.200209 -22.083744 -10.938050 6.823191 -55.576454 -13.493803 10.886547 11.895886 -30.096201 5.279665 7.137748 -6.693652 -6.248864 21.107956 2.804150 4.736628 62.128541 -3.808634 9.723757 -22.230416 36.839942 -3.538544 4.706737 7.028149 -7.396702 
0.772933 0.250695 1.172003 -83.033736 1.562678 85.744784 -0.066520 0.362903 1.512159 -4.009165 -11.365102 10.798366 5.175482 9.383660 -19.686573 0.000000 -0.000000 0.000000 -1.299125 -0.792229 -24.808391 2.746673 -5.963825 22.287303 5.332646 -6.613533 -0.459597 0.000000 -0.000000 0.000000 -2.039388 -0.576168 15.409929 2.043935 -4.545919 6.186044 1.725065 -3.705295 1.820482 -0.397293 2.003946 -1.574217 6.233827 -0.084762 -10.246939 -22.348151 -11.094938 7.332553 -55.705300 -13.775480 10.839757 11.775675 -29.280226 5.641107 6.469104 -6.863062 -5.871272 21.097355 2.474345 4.731225 62.196276 -4.137945 9.609164 -22.051531 36.139561 -3.563854 4.715711 6.861467 -7.665435 
0.755728 0.251124 1.170152 -82.012717 1.474431 85.917291 0.003613 0.022118 2.432533 -4.035880 -11.947003 10.961630 5.109737 9.553664 -20.592191 0.000000 -0.000000 0.000000 -1.190033 -0.828850 -22.495657 2.410511 -6.023226 18.168008 5.687164 -6.998579 3.578755 0.000000 -0.000000 0.000000 -1.797049 -0.570144 14.432034 2.209583 -4.959724 6.412709 1.901643 -3.933571 1.709656 -0.274477 1.137175 -1.054395 6.551960 0.044493 -10.280171 -22.624563 -11.034132 7.778095 -56.129449 -13.887030 10.869106 11.734955 -28.774935 5.888704 5.975483 -6.874774 -5.687056 21.188581 2.076328 4.819538 62.011675 -4.565518 9.455097 -21.890419 35.581557 -3.531941 5.041482 6.651666 -7.691887 
0.737786 0.252663 1.167851 -81.238895 1.427393 86.226671 0.255992 -0.089312 3.114385 -4.062119 -12.437268 11.365572 4.685457 9.596734 -21.614494 0.000000 -0.000000 0.000000 -0.657728 -0.890241 -20.363309 2.051548 -6.191905 15.582129 4.537454 -7.472376 3.211119 0.000000 -0.000000 0.000000 -1.620773 -0.531923 13.481391 2.423491 -5.174169 6.331621 2.063807 -4.063690 1.783761 0.261736 0.720246 -0.978579 6.709455 -0.160854 -9.870057 -22.836478 -10.528238 7.956087 -56.617976 -13.893249 10.861494 11.469081 -28.644365 6.655302 5.737084 -7.215393 -5.604317 21.243797 1.524999 4.695473 61.808484 -4.922154 9.268844 -21.507775 35.090435 -2.812543 5.152347 6.752660 -7.716235 
0.719509 0.255014 1.166191 -80.869339 1.460831 86.695540 0.676321 -0.213971 3.741050 -4.015534 -12.589962 11.701040 3.894442 9.670116 -22.384254 0.000000 -0.000000 0.000000 0.015728 -0.863366 -18.552873 1.707241 -6.744998 13.962238 3.624992 -8.024473 0.879764 0.000000 -0.000000 0.000000 -1.404912 -0.436274 12.618849 2.628648 -5.253182 6.242064 2.288846 -4.051321 1.507783 0.653863 0.428271 -0.771569 6.945888 -0.561798 -9.728828 -23.186214 -10.064649 8.257950 -57.032496 -13.402792 10.767961 11.344229 -29.004536 6.903824 5.626761 -6.944460 -5.771698 21.357967 1.216976 4.774110 61.559966 -5.327503 8.858525 -21.200005 34.729970 -2.327517 5.023838 6.551100 -7.959224 
0.701925 0.257968 1.165254 -81.327927 1.761946 87.286190 1.221610 -0.217397 4.186323 -3.767165 -12.553491 12.154000 3.547498 9.993042 -22.985846 0.000000 -0.000000 0.000000 0.955253 -0.745392 -17.708393 1.698687 -6.756391 12.984690 2.852549 -8.223763 0.939360 0.000000 -0.000000 0.000000 -0.762308 -0.408560 11.983061 2.720009 -5.029749 5.975414 2.337437 -3.850542 1.239085 0.828669 0.083032 -0.910850 7.056840 -0.597809 -9.423143 -23.398260 -9.536563 8.546428 -57.470038 -12.708450 10.548190 11.311238 -29.493009 6.876120 5.504244 -7.038794 -6.156423 21.331254 1.282340 5.015606 61.477376 -5.371752 8.528236 -21.101119 34.294139 -2.263649 4.811756 6.357736 -8.220727 
0.684968 0.261297 1.165568 -82.377332 2.253534 87.686462 1.728564 -0.421867 4.523130 -3.462320 -12.138137 13.231122 3.317615 10.770737 -23.729497 0.000000 -0.000000 0.000000 1.725712 -0.071745 -17.552534 2.072628 -6.501089 13.771676 2.712158 -8.155075 0.121546 0.000000 -0.000000 0.000000 -0.036569 -0.481256 11.573160 2.915876 -4.617243 5.906571 2.317895 -3.519884 1.082448 0.986763 0.062791 -1.180416 6.763041 -0.573947 -9.287176 -23.565469 -9.057812 8.724043 -57.874070 -11.967190 10.462519 11.559552 -30.053491 6.658915 5.172427 -7.017913 -6.523233 21.270935 1.613078 5.001350 61.203196 -5.073854 8.444359 -20.896474 33.835218 -2.167848 4.580050 6.369288 -8.600803 
